<svg width="38" height="31" viewBox="0 0 38 31" fill="none" xmlns="http://www.w3.org/2000/svg">
<path fill-rule="evenodd" clip-rule="evenodd" d="M5.26215 0.83667H5.11599C4.44661 0.83667 3.87076 0.83667 3.36215 0.929218C2.57478 1.07451 1.85486 1.38529 1.28218 1.82714C0.709489 2.26898 0.306386 2.82463 0.117533 3.43253C0.000610243 3.82529 0.000610352 4.26772 0.000610352 4.78689V10.4301C0.000610352 10.947 0.000610373 11.3917 0.120457 11.7844C0.3086 12.3924 0.711054 12.9484 1.28323 13.3906C1.8554 13.8329 2.57495 14.1442 3.36215 14.29C3.87076 14.3803 4.44369 14.3803 5.11599 14.3803H12.4237C13.0931 14.3803 13.6689 14.3803 14.1775 14.2877C14.9649 14.1424 15.6848 13.8317 16.2575 13.3898C16.8302 12.948 17.2333 12.3923 17.4221 11.7844C17.5391 11.3917 17.5391 10.9492 17.5391 10.4301V4.78689C17.5391 4.26997 17.5391 3.82529 17.4192 3.43253C17.2311 2.8245 16.8286 2.26857 16.2565 1.82633C15.6843 1.38408 14.9647 1.0728 14.1775 0.926961C13.6689 0.83667 13.096 0.83667 12.4237 0.83667H5.26215ZM4.04323 3.12554C4.16892 3.10297 4.36476 3.09394 5.26215 3.09394H12.2775C13.1778 3.09394 13.3708 3.10071 13.4965 3.12554C13.759 3.17403 13.9991 3.27774 14.19 3.42516C14.3809 3.57258 14.5152 3.75796 14.578 3.96073C14.6072 4.05553 14.616 4.20451 14.616 4.89975V10.3172C14.616 11.0124 14.6072 11.1614 14.5751 11.2585C14.5123 11.4612 14.378 11.6466 14.1871 11.794C13.9962 11.9415 13.7561 12.0452 13.4935 12.0937C13.3737 12.114 13.1808 12.123 12.2775 12.123H5.26215C4.36184 12.123 4.16892 12.1162 4.04323 12.0914C3.78065 12.0429 3.54059 11.9392 3.34968 11.7918C3.15878 11.6444 3.02448 11.459 2.96169 11.2562C2.93538 11.1637 2.92369 11.0147 2.92369 10.3172V4.89975C2.92369 4.20451 2.93246 4.05553 2.96461 3.95847C3.0274 3.7557 3.1617 3.57032 3.35261 3.4229C3.54351 3.27548 3.78357 3.17177 4.04615 3.12328L4.04323 3.12554ZM25.7237 0.83667H25.5775C24.9081 0.83667 24.3323 0.83667 23.8237 0.929218C23.0363 1.07451 22.3164 1.38529 21.7437 1.82714C21.171 2.26898 20.7679 2.82463 20.5791 3.43253C20.4621 3.82529 20.4621 4.26772 20.4621 4.78689V10.4301C20.4621 10.947 20.4621 11.3917 20.582 11.7844C20.7701 12.3924 21.1726 12.9484 21.7448 13.3906C22.3169 13.8329 23.0365 14.1442 23.8237 14.29C24.3323 14.3803 24.9052 14.3803 25.5775 14.3803H32.8852C33.5546 14.3803 34.1305 14.3803 34.6391 14.2877C35.4264 14.1424 36.1464 13.8317 36.719 13.3898C37.2917 12.948 37.6948 12.3923 37.8837 11.7844C38.0006 11.3917 38.0006 10.9492 38.0006 10.4301V4.78689C38.0006 4.26997 38.0006 3.82529 37.8808 3.43253C37.6926 2.8245 37.2902 2.26857 36.718 1.82633C36.1458 1.38408 35.4263 1.0728 34.6391 0.926961C34.1305 0.83667 33.5575 0.83667 32.8852 0.83667H25.7237ZM24.5048 3.12554C24.6305 3.10297 24.8263 3.09394 25.7237 3.09394H32.7391C33.6394 3.09394 33.8323 3.10071 33.958 3.12554C34.2206 3.17403 34.4606 3.27774 34.6515 3.42516C34.8424 3.57258 34.9767 3.75796 35.0395 3.96073C35.0688 4.05553 35.0775 4.20451 35.0775 4.89975V10.3172C35.0775 11.0124 35.0658 11.1614 35.0366 11.2585C34.9738 11.4612 34.8395 11.6466 34.6486 11.794C34.4577 11.9415 34.2177 12.0452 33.9551 12.0937C33.8323 12.1162 33.6394 12.123 32.7391 12.123H25.7237C24.8234 12.123 24.6305 12.1162 24.5048 12.0914C24.2422 12.0429 24.0021 11.9392 23.8112 11.7918C23.6203 11.6444 23.486 11.459 23.4232 11.2562C23.3969 11.1637 23.3852 11.0147 23.3852 10.3172V4.89975C23.3852 4.20451 23.394 4.05553 23.4261 3.95847C23.4889 3.7557 23.6232 3.57032 23.8141 3.4229C24.0051 3.27548 24.2451 3.17177 24.5077 3.12328L24.5048 3.12554ZM5.11599 16.6375H12.4237C13.0931 16.6375 13.6689 16.6375 14.1775 16.7301C14.9649 16.8754 15.6848 17.1862 16.2575 17.628C16.8302 18.0699 17.2333 18.6255 17.4221 19.2334C17.5391 19.6262 17.5391 20.0686 17.5391 20.5878V26.2309C17.5391 26.7478 17.5391 27.1925 17.4192 27.5853C17.2311 28.1933 16.8286 28.7493 16.2565 29.1915C15.6843 29.6337 14.9647 29.945 14.1775 30.0909C13.6689 30.1812 13.096 30.1812 12.4237 30.1812H5.11599C4.44661 30.1812 3.87076 30.1812 3.36215 30.0886C2.57478 29.9433 1.85486 29.6325 1.28218 29.1907C0.709489 28.7488 0.306386 28.1932 0.117533 27.5853C0.000610243 27.1925 0.000610352 26.7501 0.000610352 26.2309V20.5878C0.000610352 20.0709 0.000610373 19.6262 0.120457 19.2334C0.3086 18.6254 0.711054 18.0694 1.28323 17.6272C1.8554 17.185 2.57495 16.8737 3.36215 16.7278C3.87076 16.6375 4.44369 16.6375 5.11599 16.6375ZM5.26215 18.8948C4.36184 18.8948 4.16892 18.9016 4.04323 18.9264C3.78065 18.9749 3.54059 19.0786 3.34968 19.226C3.15878 19.3735 3.02448 19.5588 2.96169 19.7616C2.93538 19.8542 2.92369 20.0031 2.92369 20.7006V26.1181C2.92369 26.8133 2.93246 26.9623 2.96461 27.0594C3.0274 27.2621 3.1617 27.4475 3.35261 27.5949C3.54351 27.7423 3.78357 27.8461 4.04615 27.8945C4.16892 27.9171 4.36184 27.9239 5.26215 27.9239H12.2775C13.1778 27.9239 13.3708 27.9149 13.4965 27.8923C13.759 27.8438 13.9991 27.7401 14.19 27.5927C14.3809 27.4452 14.5152 27.2599 14.578 27.0571C14.6072 26.9623 14.616 26.8133 14.616 26.1181V20.7006C14.616 20.0054 14.6072 19.8564 14.5751 19.7593C14.5123 19.5566 14.378 19.3712 14.1871 19.2238C13.9962 19.0764 13.7561 18.9726 13.4935 18.9242C13.3737 18.9038 13.1808 18.8948 12.2775 18.8948H5.26215ZM25.7237 16.6375H25.5775C24.9081 16.6375 24.3323 16.6375 23.8237 16.7301C23.0363 16.8754 22.3164 17.1862 21.7437 17.628C21.171 18.0699 20.7679 18.6255 20.5791 19.2334C20.4621 19.6262 20.4621 20.0686 20.4621 20.5878V26.2309C20.4621 26.7478 20.4621 27.1925 20.582 27.5853C20.7701 28.1933 21.1726 28.7493 21.7448 29.1915C22.3169 29.6337 23.0365 29.945 23.8237 30.0909C24.3323 30.1834 24.9081 30.1834 25.5775 30.1834H32.8852C33.5546 30.1834 34.1305 30.1834 34.6391 30.0909C35.4259 29.9452 36.1452 29.6343 36.7173 29.1924C37.2895 28.7506 37.6921 28.1952 37.8808 27.5876C38.0006 27.1948 38.0006 26.7501 38.0006 26.2332V20.5878C38.0006 20.0709 38.0006 19.6262 37.8808 19.2334C37.6926 18.6254 37.2902 18.0694 36.718 17.6272C36.1458 17.185 35.4263 16.8737 34.6391 16.7278C34.1305 16.6375 33.5575 16.6375 32.8852 16.6375H25.7237ZM24.5048 18.9264C24.6305 18.9038 24.8263 18.8948 25.7237 18.8948H32.7391C33.6394 18.8948 33.8323 18.9016 33.958 18.9264C34.2206 18.9749 34.4606 19.0786 34.6515 19.226C34.8424 19.3735 34.9767 19.5588 35.0395 19.7616C35.0688 19.8564 35.0775 20.0054 35.0775 20.7006V26.1181C35.0775 26.8133 35.0658 26.9623 35.0366 27.0594C34.9738 27.2621 34.8395 27.4475 34.6486 27.5949C34.4577 27.7423 34.2177 27.8461 33.9551 27.8945C33.8323 27.9171 33.6394 27.9239 32.7391 27.9239H25.7237C24.8234 27.9239 24.6305 27.9149 24.5048 27.8923C24.2422 27.8438 24.0021 27.7401 23.8112 27.5927C23.6203 27.4452 23.486 27.2599 23.4232 27.0571C23.3969 26.9645 23.3852 26.8156 23.3852 26.1181V20.7006C23.3852 20.0054 23.394 19.8564 23.4261 19.7593C23.4889 19.5566 23.6232 19.3712 23.8141 19.2238C24.0051 19.0764 24.2451 18.9726 24.5077 18.9242L24.5048 18.9264Z" fill="black"/>
</svg>
