<svg width="38" height="31" viewBox="0 0 38 31" fill="none" xmlns="http://www.w3.org/2000/svg">
<path fill-rule="evenodd" clip-rule="evenodd" d="M19.0008 6.21269L17.2979 4.77089C13.3006 1.38649 5.97117 2.5544 3.32534 6.80936C2.08318 8.81066 1.80292 11.7001 4.07111 15.3878C6.25618 18.9385 10.8021 23.1915 19.0008 27.824C27.1996 23.1915 31.7431 18.9385 33.9305 15.3878C36.1987 11.6982 35.9208 8.81066 34.6763 6.80936C32.0305 2.5544 24.701 1.38453 20.7037 4.76894L19.0008 6.21269ZM19.0008 30.1813C-17.4162 10.3601 7.7881 -5.1104 18.5828 3.07282C18.7253 3.18042 18.8654 3.29193 19.0008 3.40735C19.1348 3.29203 19.2743 3.18109 19.4188 3.07478C30.2112 -5.11431 55.4178 10.3581 19.0008 30.1813Z" fill="#0057FF"/>
</svg>
