<svg width="38" height="31" viewBox="0 0 38 31" fill="none" xmlns="http://www.w3.org/2000/svg">
<path fill-rule="evenodd" clip-rule="evenodd" d="M34.4381 3.28206H3.56311C3.24817 3.28206 2.94612 3.41088 2.72342 3.64018C2.50072 3.86948 2.37561 4.18047 2.37561 4.50475V26.5133C2.37561 26.8375 2.50072 27.1485 2.72342 27.3778C2.94612 27.6071 3.24817 27.7359 3.56311 27.7359H34.4381C34.7531 27.7359 35.0551 27.6071 35.2778 27.3778C35.5005 27.1485 35.6256 26.8375 35.6256 26.5133V4.50475C35.6256 4.18047 35.5005 3.86948 35.2778 3.64018C35.0551 3.41088 34.7531 3.28206 34.4381 3.28206ZM3.56311 0.83667C2.61828 0.83667 1.71214 1.22313 1.04404 1.91103C0.375944 2.59893 0.000610352 3.53192 0.000610352 4.50475L0.000610352 26.5133C0.000610352 27.4861 0.375944 28.4191 1.04404 29.107C1.71214 29.7949 2.61828 30.1813 3.56311 30.1813H34.4381C35.3829 30.1813 36.2891 29.7949 36.9572 29.107C37.6253 28.4191 38.0006 27.4861 38.0006 26.5133V4.50475C38.0006 3.53192 37.6253 2.59893 36.9572 1.91103C36.2891 1.22313 35.3829 0.83667 34.4381 0.83667H3.56311Z" fill="black"/>
<path fill-rule="evenodd" clip-rule="evenodd" d="M11.8756 15.509C11.8756 15.1847 12.0007 14.8737 12.2234 14.6444C12.4461 14.4151 12.7482 14.2863 13.0631 14.2863H29.6881C30.0031 14.2863 30.3051 14.4151 30.5278 14.6444C30.7505 14.8737 30.8756 15.1847 30.8756 15.509C30.8756 15.8333 30.7505 16.1443 30.5278 16.3736C30.3051 16.6029 30.0031 16.7317 29.6881 16.7317H13.0631C12.7482 16.7317 12.4461 16.6029 12.2234 16.3736C12.0007 16.1443 11.8756 15.8333 11.8756 15.509ZM11.8756 9.39554C11.8756 9.07127 12.0007 8.76027 12.2234 8.53097C12.4461 8.30167 12.7482 8.17285 13.0631 8.17285H29.6881C30.0031 8.17285 30.3051 8.30167 30.5278 8.53097C30.7505 8.76027 30.8756 9.07127 30.8756 9.39554C30.8756 9.71982 30.7505 10.0308 30.5278 10.2601C30.3051 10.4894 30.0031 10.6182 29.6881 10.6182H13.0631C12.7482 10.6182 12.4461 10.4894 12.2234 10.2601C12.0007 10.0308 11.8756 9.71982 11.8756 9.39554ZM11.8756 21.6225C11.8756 21.2982 12.0007 20.9872 12.2234 20.7579C12.4461 20.5286 12.7482 20.3998 13.0631 20.3998H29.6881C30.0031 20.3998 30.3051 20.5286 30.5278 20.7579C30.7505 20.9872 30.8756 21.2982 30.8756 21.6225C30.8756 21.9467 30.7505 22.2577 30.5278 22.487C30.3051 22.7163 30.0031 22.8452 29.6881 22.8452H13.0631C12.7482 22.8452 12.4461 22.7163 12.2234 22.487C12.0007 22.2577 11.8756 21.9467 11.8756 21.6225Z" fill="black"/>
<path d="M8.31311 10.6182C8.96895 10.6182 9.50061 10.0708 9.50061 9.39551C9.50061 8.72025 8.96895 8.17285 8.31311 8.17285C7.65727 8.17285 7.12561 8.72025 7.12561 9.39551C7.12561 10.0708 7.65727 10.6182 8.31311 10.6182Z" fill="black"/>
<path d="M8.31311 16.7317C8.96895 16.7317 9.50061 16.1843 9.50061 15.509C9.50061 14.8337 8.96895 14.2863 8.31311 14.2863C7.65727 14.2863 7.12561 14.8337 7.12561 15.509C7.12561 16.1843 7.65727 16.7317 8.31311 16.7317Z" fill="black"/>
<path d="M8.31311 22.8452C8.96895 22.8452 9.50061 22.2977 9.50061 21.6224C9.50061 20.9471 8.96895 20.3997 8.31311 20.3997C7.65727 20.3997 7.12561 20.9471 7.12561 21.6224C7.12561 22.2977 7.65727 22.8452 8.31311 22.8452Z" fill="black"/>
</svg>
