<svg width="38" height="31" viewBox="0 0 38 31" fill="none" xmlns="http://www.w3.org/2000/svg">
<path fill-rule="evenodd" clip-rule="evenodd" d="M34.438 3.28206H3.56299C3.24804 3.28206 2.946 3.41088 2.7233 3.64018C2.5006 3.86948 2.37549 4.18047 2.37549 4.50475V26.5133C2.37549 26.8375 2.5006 27.1485 2.7233 27.3778C2.946 27.6071 3.24804 27.7359 3.56299 27.7359H34.438C34.7529 27.7359 35.055 27.6071 35.2777 27.3778C35.5004 27.1485 35.6255 26.8375 35.6255 26.5133V4.50475C35.6255 4.18047 35.5004 3.86948 35.2777 3.64018C35.055 3.41088 34.7529 3.28206 34.438 3.28206ZM3.56299 0.83667C2.61815 0.83667 1.71202 1.22313 1.04392 1.91103C0.375822 2.59893 0.000488281 3.53192 0.000488281 4.50475L0.000488281 26.5133C0.000488281 27.4861 0.375822 28.4191 1.04392 29.107C1.71202 29.7949 2.61815 30.1813 3.56299 30.1813H34.438C35.3828 30.1813 36.289 29.7949 36.9571 29.107C37.6252 28.4191 38.0005 27.4861 38.0005 26.5133V4.50475C38.0005 3.53192 37.6252 2.59893 36.9571 1.91103C36.289 1.22313 35.3828 0.83667 34.438 0.83667H3.56299Z" fill="#0057FF"/>
<path fill-rule="evenodd" clip-rule="evenodd" d="M11.8755 15.509C11.8755 15.1847 12.0006 14.8737 12.2233 14.6444C12.446 14.4151 12.748 14.2863 13.063 14.2863H29.688C30.0029 14.2863 30.305 14.4151 30.5277 14.6444C30.7504 14.8737 30.8755 15.1847 30.8755 15.509C30.8755 15.8333 30.7504 16.1443 30.5277 16.3736C30.305 16.6029 30.0029 16.7317 29.688 16.7317H13.063C12.748 16.7317 12.446 16.6029 12.2233 16.3736C12.0006 16.1443 11.8755 15.8333 11.8755 15.509ZM11.8755 9.39554C11.8755 9.07127 12.0006 8.76027 12.2233 8.53097C12.446 8.30167 12.748 8.17285 13.063 8.17285H29.688C30.0029 8.17285 30.305 8.30167 30.5277 8.53097C30.7504 8.76027 30.8755 9.07127 30.8755 9.39554C30.8755 9.71982 30.7504 10.0308 30.5277 10.2601C30.305 10.4894 30.0029 10.6182 29.688 10.6182H13.063C12.748 10.6182 12.446 10.4894 12.2233 10.2601C12.0006 10.0308 11.8755 9.71982 11.8755 9.39554ZM11.8755 21.6225C11.8755 21.2982 12.0006 20.9872 12.2233 20.7579C12.446 20.5286 12.748 20.3998 13.063 20.3998H29.688C30.0029 20.3998 30.305 20.5286 30.5277 20.7579C30.7504 20.9872 30.8755 21.2982 30.8755 21.6225C30.8755 21.9467 30.7504 22.2577 30.5277 22.487C30.305 22.7163 30.0029 22.8452 29.688 22.8452H13.063C12.748 22.8452 12.446 22.7163 12.2233 22.487C12.0006 22.2577 11.8755 21.9467 11.8755 21.6225Z" fill="#0057FF"/>
<path d="M8.31299 10.6182C8.96883 10.6182 9.50049 10.0708 9.50049 9.39551C9.50049 8.72025 8.96883 8.17285 8.31299 8.17285C7.65715 8.17285 7.12549 8.72025 7.12549 9.39551C7.12549 10.0708 7.65715 10.6182 8.31299 10.6182Z" fill="#0057FF"/>
<path d="M8.31299 16.7318C8.96883 16.7318 9.50049 16.1843 9.50049 15.5091C9.50049 14.8338 8.96883 14.2864 8.31299 14.2864C7.65715 14.2864 7.12549 14.8338 7.12549 15.5091C7.12549 16.1843 7.65715 16.7318 8.31299 16.7318Z" fill="#0057FF"/>
<path d="M8.31299 22.8451C8.96883 22.8451 9.50049 22.2977 9.50049 21.6224C9.50049 20.9471 8.96883 20.3997 8.31299 20.3997C7.65715 20.3997 7.12549 20.9471 7.12549 21.6224C7.12549 22.2977 7.65715 22.8451 8.31299 22.8451Z" fill="#0057FF"/>
</svg>
