<svg width="20" height="20" viewBox="0 0 20 20" fill="none" xmlns="http://www.w3.org/2000/svg">
<path d="M10 0C4.47768 0 0 4.47768 0 10C0 15.5223 4.47768 20 10 20C15.5223 20 20 15.5223 20 10C20 4.47768 15.5223 0 10 0ZM10 18.3036C5.41518 18.3036 1.69643 14.5848 1.69643 10C1.69643 5.41518 5.41518 1.69643 10 1.69643C14.5848 1.69643 18.3036 5.41518 18.3036 10C18.3036 14.5848 14.5848 18.3036 10 18.3036Z" fill="#FF0000"/>
<path d="M14.6294 9.71204L8.02006 4.91294C7.96705 4.87408 7.90429 4.85071 7.83878 4.84542C7.77327 4.84013 7.70757 4.85314 7.64902 4.883C7.59046 4.91285 7.54135 4.95838 7.50715 5.01451C7.47295 5.07064 7.45501 5.13516 7.45533 5.20088V14.7991C7.45533 15.0915 7.78568 15.2567 8.02006 15.087L14.6294 10.2879C14.6751 10.2551 14.7122 10.2118 14.7379 10.1617C14.7635 10.1117 14.7769 10.0562 14.7769 9.99999C14.7769 9.94375 14.7635 9.88831 14.7379 9.83824C14.7122 9.78818 14.6751 9.74492 14.6294 9.71204ZM8.87943 12.7031V7.29687L12.6004 9.99999L8.87943 12.7031Z" fill="#FF0000"/>
</svg>
