<svg width="30" height="31" viewBox="0 0 30 31" fill="none" xmlns="http://www.w3.org/2000/svg">
<path d="M29.5505 21.8865C27.6964 20.1836 25.4465 18.8245 22.9423 17.895C20.4382 16.9655 17.7342 16.4856 15.0005 16.4856C12.2668 16.4856 9.56276 16.9655 7.05863 17.895C4.5545 18.8245 2.30455 20.1836 0.450488 21.8865C0.164238 22.1549 0.004114 22.5029 0.000488281 22.8647V28.7337C0.00655572 29.1194 0.191579 29.4876 0.515506 29.7585C0.839433 30.0295 1.2762 30.1814 1.73126 30.1813H28.2697C28.7287 30.1813 29.169 30.0268 29.4936 29.7516C29.8181 29.4764 30.0005 29.1032 30.0005 28.7141V22.8451C29.9913 22.4901 29.8315 22.1498 29.5505 21.8865Z" fill="#461919"/>
<path d="M15.0003 14.5309C19.461 14.5309 23.0772 11.4653 23.0772 7.68378C23.0772 3.90222 19.461 0.83667 15.0003 0.83667C10.5395 0.83667 6.92334 3.90222 6.92334 7.68378C6.92334 11.4653 10.5395 14.5309 15.0003 14.5309Z" fill="#461919"/>
</svg>
