<svg width="40" height="31" viewBox="0 0 40 31" fill="none" xmlns="http://www.w3.org/2000/svg">
<path d="M40 3.66971C38.5281 4.2921 36.9466 4.71275 35.2866 4.90198C36.9811 3.93345 38.2822 2.39973 38.8948 0.57233C37.284 1.48392 35.5216 2.1262 33.6838 2.47141C32.1867 0.950506 30.0541 0 27.6936 0C23.1614 0 19.4869 3.50401 19.4869 7.82577C19.4869 8.43923 19.5595 9.03644 19.6994 9.60937C12.8791 9.28289 6.83219 6.16734 2.78453 1.43254C2.07828 2.58837 1.67359 3.93285 1.67359 5.36688C1.67359 8.08206 3.1225 10.4773 5.32438 11.8808C4.02117 11.8419 2.74664 11.5062 1.60719 10.9018C1.60672 10.9346 1.60672 10.9674 1.60672 11.0003C1.60672 14.7921 4.43547 17.9552 8.18953 18.6741C6.98107 18.9875 5.71348 19.0334 4.48359 18.8082C5.52781 21.9174 8.55859 24.1799 12.1495 24.2432C9.34094 26.3421 5.80234 27.5933 1.95766 27.5933C1.29516 27.5933 0.642031 27.5562 0 27.4839C3.63172 29.7044 7.94531 31 12.5797 31C27.6745 31 35.9287 19.0749 35.9287 8.73336C35.9287 8.39393 35.9209 8.05643 35.905 7.72087C37.5116 6.61329 38.8983 5.24144 40 3.66971Z" fill="white"/>
</svg>
